<mxfile host="app.diagrams.net" agent="Mozilla/5.0 (Windows NT 10.0; Win64; x64) AppleWebKit/537.36 (KHTML, like Gecko) Chrome/127.0.0.0 Safari/537.36 Edg/127.0.0.0" version="24.7.12" pages="3">
  <diagram name="Page-1" id="oSyRAqj7HUZnfW79CDNI">
    <mxGraphModel dx="1149" dy="733" grid="1" gridSize="10" guides="1" tooltips="1" connect="1" arrows="1" fold="1" page="1" pageScale="1" pageWidth="1100" pageHeight="850" math="0" shadow="0">
      <root>
        <mxCell id="0" />
        <mxCell id="1" parent="0" />
        <mxCell id="-jVfMDI7OYQH_IpvzSHl-4" value="&lt;font style=&quot;font-size: 16px;&quot;&gt;Software-defined Memory Tier&lt;/font&gt;&lt;div&gt;&lt;font style=&quot;font-size: 16px;&quot;&gt;Change DCD allocations to hosts to configure tiered memory using software&amp;nbsp;&lt;/font&gt;&lt;/div&gt;" style="rounded=0;whiteSpace=wrap;html=1;fillColor=none;strokeColor=#82b366;dashed=1;verticalAlign=bottom;strokeWidth=2;" vertex="1" parent="1">
          <mxGeometry x="140" y="130" width="600" height="240" as="geometry" />
        </mxCell>
        <mxCell id="-jVfMDI7OYQH_IpvzSHl-5" value="" style="group;fontSize=16;" vertex="1" connectable="0" parent="1">
          <mxGeometry x="150" y="150" width="590" height="80" as="geometry" />
        </mxCell>
        <mxCell id="-jVfMDI7OYQH_IpvzSHl-6" value="" style="rounded=1;whiteSpace=wrap;html=1;fillColor=#d5e8d4;strokeColor=#82b366;fontSize=16;" vertex="1" parent="-jVfMDI7OYQH_IpvzSHl-5">
          <mxGeometry width="582.5316455696202" height="80" as="geometry" />
        </mxCell>
        <mxCell id="-jVfMDI7OYQH_IpvzSHl-7" value="" style="endArrow=none;html=1;rounded=0;strokeWidth=3;" edge="1" parent="-jVfMDI7OYQH_IpvzSHl-5">
          <mxGeometry width="50" height="50" relative="1" as="geometry">
            <mxPoint x="18" y="60" as="sourcePoint" />
            <mxPoint x="521" y="60" as="targetPoint" />
          </mxGeometry>
        </mxCell>
        <mxCell id="-jVfMDI7OYQH_IpvzSHl-8" value="" style="endArrow=none;html=1;rounded=0;strokeWidth=3;" edge="1" parent="-jVfMDI7OYQH_IpvzSHl-5">
          <mxGeometry width="50" height="50" relative="1" as="geometry">
            <mxPoint x="179.43037974683543" y="132" as="sourcePoint" />
            <mxPoint x="179.43037974683543" y="59" as="targetPoint" />
          </mxGeometry>
        </mxCell>
        <mxCell id="-jVfMDI7OYQH_IpvzSHl-9" value="" style="endArrow=none;html=1;rounded=0;strokeWidth=3;" edge="1" parent="-jVfMDI7OYQH_IpvzSHl-5">
          <mxGeometry width="50" height="50" relative="1" as="geometry">
            <mxPoint x="200.62025316455697" y="132" as="sourcePoint" />
            <mxPoint x="200.62025316455697" y="61" as="targetPoint" />
          </mxGeometry>
        </mxCell>
        <mxCell id="-jVfMDI7OYQH_IpvzSHl-11" value="CXL Switch" style="text;html=1;align=center;verticalAlign=middle;whiteSpace=wrap;rounded=0;fontSize=16;" vertex="1" parent="-jVfMDI7OYQH_IpvzSHl-5">
          <mxGeometry x="242.72151898734177" y="10" width="97.0886075949367" height="30" as="geometry" />
        </mxCell>
        <mxCell id="-jVfMDI7OYQH_IpvzSHl-12" value="" style="rounded=0;whiteSpace=wrap;html=1;strokeColor=none;fontSize=16;" vertex="1" parent="-jVfMDI7OYQH_IpvzSHl-5">
          <mxGeometry x="550.1164978902955" y="17" width="15.534177215189873" height="16" as="geometry" />
        </mxCell>
        <mxCell id="-jVfMDI7OYQH_IpvzSHl-13" value="" style="rounded=0;whiteSpace=wrap;html=1;strokeColor=none;fontSize=16;" vertex="1" parent="-jVfMDI7OYQH_IpvzSHl-5">
          <mxGeometry x="524.2262025316455" y="17" width="15.534177215189873" height="16" as="geometry" />
        </mxCell>
        <mxCell id="-jVfMDI7OYQH_IpvzSHl-14" value="" style="rounded=0;whiteSpace=wrap;html=1;strokeColor=none;fontSize=16;" vertex="1" parent="-jVfMDI7OYQH_IpvzSHl-5">
          <mxGeometry x="498.33590717299586" y="17" width="15.534177215189873" height="16" as="geometry" />
        </mxCell>
        <mxCell id="-jVfMDI7OYQH_IpvzSHl-15" value="" style="rounded=0;whiteSpace=wrap;html=1;strokeColor=none;fontSize=16;" vertex="1" parent="-jVfMDI7OYQH_IpvzSHl-5">
          <mxGeometry x="472.4456118143459" y="17" width="15.534177215189873" height="16" as="geometry" />
        </mxCell>
        <mxCell id="-jVfMDI7OYQH_IpvzSHl-23" style="edgeStyle=orthogonalEdgeStyle;rounded=0;orthogonalLoop=1;jettySize=auto;html=1;entryX=0.25;entryY=0;entryDx=0;entryDy=0;exitX=0.5;exitY=1;exitDx=0;exitDy=0;" edge="1" parent="1" source="-jVfMDI7OYQH_IpvzSHl-106">
          <mxGeometry relative="1" as="geometry">
            <mxPoint x="181" y="90" as="sourcePoint" />
            <mxPoint x="271.6329113924055" y="150.0000000000001" as="targetPoint" />
          </mxGeometry>
        </mxCell>
        <mxCell id="-jVfMDI7OYQH_IpvzSHl-24" value="x16" style="text;html=1;align=center;verticalAlign=middle;resizable=0;points=[];autosize=1;strokeColor=none;fillColor=none;fontSize=11;" vertex="1" parent="1">
          <mxGeometry x="231" y="128" width="40" height="30" as="geometry" />
        </mxCell>
        <mxCell id="-jVfMDI7OYQH_IpvzSHl-31" value="" style="endArrow=none;html=1;rounded=0;strokeWidth=3;" edge="1" parent="1">
          <mxGeometry width="50" height="50" relative="1" as="geometry">
            <mxPoint x="169" y="282" as="sourcePoint" />
            <mxPoint x="169" y="209" as="targetPoint" />
          </mxGeometry>
        </mxCell>
        <mxCell id="-jVfMDI7OYQH_IpvzSHl-32" value="" style="endArrow=none;html=1;rounded=0;strokeWidth=3;" edge="1" parent="1">
          <mxGeometry width="50" height="50" relative="1" as="geometry">
            <mxPoint x="188" y="282" as="sourcePoint" />
            <mxPoint x="188" y="211" as="targetPoint" />
          </mxGeometry>
        </mxCell>
        <mxCell id="-jVfMDI7OYQH_IpvzSHl-33" value="" style="endArrow=none;html=1;rounded=0;strokeWidth=3;" edge="1" parent="1">
          <mxGeometry width="50" height="50" relative="1" as="geometry">
            <mxPoint x="269" y="282" as="sourcePoint" />
            <mxPoint x="269" y="211" as="targetPoint" />
          </mxGeometry>
        </mxCell>
        <mxCell id="-jVfMDI7OYQH_IpvzSHl-34" value="" style="endArrow=none;html=1;rounded=0;strokeWidth=3;" edge="1" parent="1">
          <mxGeometry width="50" height="50" relative="1" as="geometry">
            <mxPoint x="250" y="282" as="sourcePoint" />
            <mxPoint x="250" y="209" as="targetPoint" />
          </mxGeometry>
        </mxCell>
        <mxCell id="-jVfMDI7OYQH_IpvzSHl-35" value="" style="endArrow=none;html=1;rounded=0;strokeWidth=3;" edge="1" parent="1">
          <mxGeometry width="50" height="50" relative="1" as="geometry">
            <mxPoint x="410" y="282" as="sourcePoint" />
            <mxPoint x="410" y="209" as="targetPoint" />
          </mxGeometry>
        </mxCell>
        <mxCell id="-jVfMDI7OYQH_IpvzSHl-36" value="" style="endArrow=none;html=1;rounded=0;strokeWidth=3;" edge="1" parent="1">
          <mxGeometry width="50" height="50" relative="1" as="geometry">
            <mxPoint x="429" y="282" as="sourcePoint" />
            <mxPoint x="429" y="211" as="targetPoint" />
          </mxGeometry>
        </mxCell>
        <mxCell id="-jVfMDI7OYQH_IpvzSHl-37" value="" style="endArrow=none;html=1;rounded=0;strokeWidth=3;" edge="1" parent="1">
          <mxGeometry width="50" height="50" relative="1" as="geometry">
            <mxPoint x="490" y="282" as="sourcePoint" />
            <mxPoint x="490" y="209" as="targetPoint" />
          </mxGeometry>
        </mxCell>
        <mxCell id="-jVfMDI7OYQH_IpvzSHl-38" value="" style="endArrow=none;html=1;rounded=0;strokeWidth=3;" edge="1" parent="1">
          <mxGeometry width="50" height="50" relative="1" as="geometry">
            <mxPoint x="509" y="282" as="sourcePoint" />
            <mxPoint x="509" y="211" as="targetPoint" />
          </mxGeometry>
        </mxCell>
        <mxCell id="-jVfMDI7OYQH_IpvzSHl-39" value="" style="endArrow=none;html=1;rounded=0;strokeWidth=3;" edge="1" parent="1">
          <mxGeometry width="50" height="50" relative="1" as="geometry">
            <mxPoint x="650" y="282" as="sourcePoint" />
            <mxPoint x="650" y="209" as="targetPoint" />
          </mxGeometry>
        </mxCell>
        <mxCell id="-jVfMDI7OYQH_IpvzSHl-40" value="" style="endArrow=none;html=1;rounded=0;strokeWidth=3;" edge="1" parent="1">
          <mxGeometry width="50" height="50" relative="1" as="geometry">
            <mxPoint x="669" y="282" as="sourcePoint" />
            <mxPoint x="669" y="211" as="targetPoint" />
          </mxGeometry>
        </mxCell>
        <mxCell id="-jVfMDI7OYQH_IpvzSHl-41" value="" style="group" vertex="1" connectable="0" parent="1">
          <mxGeometry x="150" y="248" width="57" height="62" as="geometry" />
        </mxCell>
        <mxCell id="-jVfMDI7OYQH_IpvzSHl-42" value="&lt;div style=&quot;font-size: 15px;&quot;&gt;&lt;br style=&quot;font-size: 15px;&quot;&gt;&lt;/div&gt;" style="rounded=1;whiteSpace=wrap;html=1;strokeWidth=1;fontSize=15;rotation=90;align=right;verticalAlign=middle;horizontal=0;labelPosition=left;verticalLabelPosition=middle;fillColor=#e1d5e7;strokeColor=#9673a6;perimeterSpacing=0;imageWidth=24;arcSize=6;" vertex="1" parent="-jVfMDI7OYQH_IpvzSHl-41">
          <mxGeometry x="-2.1375" y="3.872811476335762" width="61.275" height="56.02620580594143" as="geometry" />
        </mxCell>
        <mxCell id="-jVfMDI7OYQH_IpvzSHl-43" value="&lt;font style=&quot;font-size: 14px;&quot;&gt;DCD&lt;/font&gt;" style="text;html=1;align=center;verticalAlign=middle;resizable=0;points=[];autosize=1;strokeColor=none;fillColor=none;labelBackgroundColor=none;fontColor=#000000;fontSize=14;" vertex="1" parent="-jVfMDI7OYQH_IpvzSHl-41">
          <mxGeometry x="3.4375" y="-4" width="50" height="30" as="geometry" />
        </mxCell>
        <mxCell id="-jVfMDI7OYQH_IpvzSHl-44" value="x4" style="text;html=1;align=center;verticalAlign=middle;resizable=0;points=[];autosize=1;strokeColor=none;fillColor=none;fontSize=10;" vertex="1" parent="-jVfMDI7OYQH_IpvzSHl-41">
          <mxGeometry x="13" y="-20" width="30" height="30" as="geometry" />
        </mxCell>
        <mxCell id="-jVfMDI7OYQH_IpvzSHl-45" value="" style="rounded=0;whiteSpace=wrap;html=1;fillColor=#fff2cc;strokeColor=none;shadow=0;textShadow=0;fontSize=14;" vertex="1" parent="-jVfMDI7OYQH_IpvzSHl-41">
          <mxGeometry x="3.6225000000000023" y="20.90884445950519" width="49.875" height="7.003275725742679" as="geometry" />
        </mxCell>
        <mxCell id="-jVfMDI7OYQH_IpvzSHl-46" value="" style="rounded=0;whiteSpace=wrap;html=1;fillColor=#1ba1e2;strokeColor=none;shadow=0;textShadow=0;fontSize=14;fontColor=#ffffff;" vertex="1" parent="-jVfMDI7OYQH_IpvzSHl-41">
          <mxGeometry x="3.6200000000000045" y="28.610000000000014" width="49.88" height="22.39" as="geometry" />
        </mxCell>
        <mxCell id="-jVfMDI7OYQH_IpvzSHl-47" value="" style="rounded=0;whiteSpace=wrap;html=1;fillColor=#fff2cc;strokeColor=none;shadow=0;textShadow=0;fontSize=15;" vertex="1" parent="-jVfMDI7OYQH_IpvzSHl-41">
          <mxGeometry x="3.6225000000000023" y="51.723257652772986" width="49.875" height="7.003275725742679" as="geometry" />
        </mxCell>
        <mxCell id="-jVfMDI7OYQH_IpvzSHl-48" value="" style="group" vertex="1" connectable="0" parent="1">
          <mxGeometry x="230" y="248" width="57" height="62" as="geometry" />
        </mxCell>
        <mxCell id="-jVfMDI7OYQH_IpvzSHl-49" value="&lt;div style=&quot;font-size: 15px;&quot;&gt;&lt;br style=&quot;font-size: 15px;&quot;&gt;&lt;/div&gt;" style="rounded=1;whiteSpace=wrap;html=1;strokeWidth=1;fontSize=15;rotation=90;align=right;verticalAlign=middle;horizontal=0;labelPosition=left;verticalLabelPosition=middle;fillColor=#e1d5e7;strokeColor=#9673a6;perimeterSpacing=0;imageWidth=24;arcSize=6;" vertex="1" parent="-jVfMDI7OYQH_IpvzSHl-48">
          <mxGeometry x="-2.1375" y="3.872811476335762" width="61.275" height="56.02620580594143" as="geometry" />
        </mxCell>
        <mxCell id="-jVfMDI7OYQH_IpvzSHl-50" value="&lt;font style=&quot;font-size: 14px;&quot;&gt;DCD&lt;/font&gt;" style="text;html=1;align=center;verticalAlign=middle;resizable=0;points=[];autosize=1;strokeColor=none;fillColor=none;labelBackgroundColor=none;fontColor=#000000;fontSize=14;" vertex="1" parent="-jVfMDI7OYQH_IpvzSHl-48">
          <mxGeometry x="3.4375" y="-4" width="50" height="30" as="geometry" />
        </mxCell>
        <mxCell id="-jVfMDI7OYQH_IpvzSHl-51" value="" style="rounded=0;whiteSpace=wrap;html=1;fillColor=#9e5bfb;strokeColor=none;shadow=0;textShadow=0;fontSize=14;fontColor=#ffffff;" vertex="1" parent="-jVfMDI7OYQH_IpvzSHl-48">
          <mxGeometry x="3.5600000000000023" y="19.909999999999968" width="49.88" height="14.09" as="geometry" />
        </mxCell>
        <mxCell id="-jVfMDI7OYQH_IpvzSHl-52" value="" style="rounded=0;whiteSpace=wrap;html=1;fillColor=#d80073;strokeColor=none;shadow=0;textShadow=0;fontSize=15;fontColor=#ffffff;" vertex="1" parent="-jVfMDI7OYQH_IpvzSHl-48">
          <mxGeometry x="3.5625" y="35.316051056139145" width="49.875" height="7.003275725742679" as="geometry" />
        </mxCell>
        <mxCell id="-jVfMDI7OYQH_IpvzSHl-53" value="" style="rounded=0;whiteSpace=wrap;html=1;fillColor=#1ba1e2;strokeColor=none;shadow=0;textShadow=0;fontSize=14;fontColor=#ffffff;" vertex="1" parent="-jVfMDI7OYQH_IpvzSHl-48">
          <mxGeometry x="3.5600000000000023" y="43.01999999999998" width="49.88" height="14.98" as="geometry" />
        </mxCell>
        <mxCell id="-jVfMDI7OYQH_IpvzSHl-54" value="" style="group" vertex="1" connectable="0" parent="1">
          <mxGeometry x="310" y="248" width="57" height="62" as="geometry" />
        </mxCell>
        <mxCell id="-jVfMDI7OYQH_IpvzSHl-55" value="&lt;div style=&quot;font-size: 15px;&quot;&gt;&lt;br style=&quot;font-size: 15px;&quot;&gt;&lt;/div&gt;" style="rounded=1;whiteSpace=wrap;html=1;strokeWidth=1;fontSize=15;rotation=90;align=right;verticalAlign=middle;horizontal=0;labelPosition=left;verticalLabelPosition=middle;fillColor=#e1d5e7;strokeColor=#9673a6;perimeterSpacing=0;imageWidth=24;arcSize=6;" vertex="1" parent="-jVfMDI7OYQH_IpvzSHl-54">
          <mxGeometry x="-2.1375" y="3.872811476335762" width="61.275" height="56.02620580594143" as="geometry" />
        </mxCell>
        <mxCell id="-jVfMDI7OYQH_IpvzSHl-56" value="&lt;font style=&quot;font-size: 14px;&quot;&gt;DCD&lt;/font&gt;" style="text;html=1;align=center;verticalAlign=middle;resizable=0;points=[];autosize=1;strokeColor=none;fillColor=none;labelBackgroundColor=none;fontColor=#000000;fontSize=14;" vertex="1" parent="-jVfMDI7OYQH_IpvzSHl-54">
          <mxGeometry x="3.4375" y="-4" width="50" height="30" as="geometry" />
        </mxCell>
        <mxCell id="-jVfMDI7OYQH_IpvzSHl-57" value="" style="rounded=0;whiteSpace=wrap;html=1;fillColor=#fff2cc;strokeColor=none;shadow=0;textShadow=0;fontSize=14;" vertex="1" parent="-jVfMDI7OYQH_IpvzSHl-54">
          <mxGeometry x="3.1225000000000023" y="19.90884445950519" width="49.875" height="7.003275725742679" as="geometry" />
        </mxCell>
        <mxCell id="-jVfMDI7OYQH_IpvzSHl-58" value="" style="rounded=0;whiteSpace=wrap;html=1;fillColor=#9e5bfb;strokeColor=none;shadow=0;textShadow=0;fontSize=14;fontColor=#ffffff;" vertex="1" parent="-jVfMDI7OYQH_IpvzSHl-54">
          <mxGeometry x="3.1225000000000023" y="27.612447757822224" width="49.875" height="7.003275725742679" as="geometry" />
        </mxCell>
        <mxCell id="-jVfMDI7OYQH_IpvzSHl-59" value="" style="rounded=0;whiteSpace=wrap;html=1;fillColor=#d80073;strokeColor=none;shadow=0;textShadow=0;fontSize=15;fontColor=#ffffff;" vertex="1" parent="-jVfMDI7OYQH_IpvzSHl-54">
          <mxGeometry x="3.1225000000000023" y="35.316051056139145" width="49.875" height="7.003275725742679" as="geometry" />
        </mxCell>
        <mxCell id="-jVfMDI7OYQH_IpvzSHl-60" value="" style="rounded=0;whiteSpace=wrap;html=1;fillColor=#9e5bfb;strokeColor=none;shadow=0;textShadow=0;fontSize=15;fontColor=#ffffff;" vertex="1" parent="-jVfMDI7OYQH_IpvzSHl-54">
          <mxGeometry x="3.1225000000000023" y="50.723257652772986" width="49.875" height="7.003275725742679" as="geometry" />
        </mxCell>
        <mxCell id="-jVfMDI7OYQH_IpvzSHl-61" value="" style="rounded=0;whiteSpace=wrap;html=1;fillColor=#fff2cc;strokeColor=none;shadow=0;textShadow=0;fontSize=14;" vertex="1" parent="-jVfMDI7OYQH_IpvzSHl-54">
          <mxGeometry x="3.1225000000000023" y="43.019654354456065" width="49.875" height="7.003275725742679" as="geometry" />
        </mxCell>
        <mxCell id="-jVfMDI7OYQH_IpvzSHl-62" value="" style="group" vertex="1" connectable="0" parent="1">
          <mxGeometry x="390" y="248" width="57" height="62" as="geometry" />
        </mxCell>
        <mxCell id="-jVfMDI7OYQH_IpvzSHl-63" value="&lt;div style=&quot;font-size: 15px;&quot;&gt;&lt;br style=&quot;font-size: 15px;&quot;&gt;&lt;/div&gt;" style="rounded=1;whiteSpace=wrap;html=1;strokeWidth=1;fontSize=15;rotation=90;align=right;verticalAlign=middle;horizontal=0;labelPosition=left;verticalLabelPosition=middle;fillColor=#e1d5e7;strokeColor=#9673a6;perimeterSpacing=0;imageWidth=24;arcSize=6;" vertex="1" parent="-jVfMDI7OYQH_IpvzSHl-62">
          <mxGeometry x="-2.1375" y="3.872811476335762" width="61.275" height="56.02620580594143" as="geometry" />
        </mxCell>
        <mxCell id="-jVfMDI7OYQH_IpvzSHl-64" value="&lt;font style=&quot;font-size: 14px;&quot;&gt;DCD&lt;/font&gt;" style="text;html=1;align=center;verticalAlign=middle;resizable=0;points=[];autosize=1;strokeColor=none;fillColor=none;labelBackgroundColor=none;fontColor=#000000;fontSize=14;" vertex="1" parent="-jVfMDI7OYQH_IpvzSHl-62">
          <mxGeometry x="3.4375" y="-4" width="50" height="30" as="geometry" />
        </mxCell>
        <mxCell id="-jVfMDI7OYQH_IpvzSHl-65" value="" style="rounded=0;whiteSpace=wrap;html=1;fillColor=#fa6800;strokeColor=none;shadow=0;textShadow=0;fontSize=14;fontColor=#000000;" vertex="1" parent="-jVfMDI7OYQH_IpvzSHl-62">
          <mxGeometry x="3.6225000000000023" y="19.90884445950519" width="49.875" height="7.003275725742679" as="geometry" />
        </mxCell>
        <mxCell id="-jVfMDI7OYQH_IpvzSHl-66" value="" style="rounded=0;whiteSpace=wrap;html=1;fillColor=#1ba1e2;strokeColor=none;shadow=0;textShadow=0;fontSize=14;fontColor=#ffffff;" vertex="1" parent="-jVfMDI7OYQH_IpvzSHl-62">
          <mxGeometry x="3.62" y="27.61" width="49.88" height="22.39" as="geometry" />
        </mxCell>
        <mxCell id="-jVfMDI7OYQH_IpvzSHl-67" value="" style="rounded=0;whiteSpace=wrap;html=1;fillColor=#fff2cc;strokeColor=none;shadow=0;textShadow=0;fontSize=15;" vertex="1" parent="-jVfMDI7OYQH_IpvzSHl-62">
          <mxGeometry x="3.6225000000000023" y="50.723257652772986" width="49.875" height="7.003275725742679" as="geometry" />
        </mxCell>
        <mxCell id="-jVfMDI7OYQH_IpvzSHl-68" value="" style="group" vertex="1" connectable="0" parent="1">
          <mxGeometry x="470" y="248" width="57" height="62" as="geometry" />
        </mxCell>
        <mxCell id="-jVfMDI7OYQH_IpvzSHl-69" value="&lt;div style=&quot;font-size: 15px;&quot;&gt;&lt;br style=&quot;font-size: 15px;&quot;&gt;&lt;/div&gt;" style="rounded=1;whiteSpace=wrap;html=1;strokeWidth=1;fontSize=15;rotation=90;align=right;verticalAlign=middle;horizontal=0;labelPosition=left;verticalLabelPosition=middle;fillColor=#e1d5e7;strokeColor=#9673a6;perimeterSpacing=0;imageWidth=24;arcSize=6;" vertex="1" parent="-jVfMDI7OYQH_IpvzSHl-68">
          <mxGeometry x="-2.1375" y="3.872811476335762" width="61.275" height="56.02620580594143" as="geometry" />
        </mxCell>
        <mxCell id="-jVfMDI7OYQH_IpvzSHl-70" value="&lt;font style=&quot;font-size: 14px;&quot;&gt;DCD&lt;/font&gt;" style="text;html=1;align=center;verticalAlign=middle;resizable=0;points=[];autosize=1;strokeColor=none;fillColor=none;labelBackgroundColor=none;fontColor=#000000;fontSize=14;" vertex="1" parent="-jVfMDI7OYQH_IpvzSHl-68">
          <mxGeometry x="3.4375" y="-4" width="50" height="30" as="geometry" />
        </mxCell>
        <mxCell id="-jVfMDI7OYQH_IpvzSHl-71" value="" style="rounded=0;whiteSpace=wrap;html=1;fillColor=#d80073;strokeColor=none;shadow=0;textShadow=0;fontSize=14;fontColor=#ffffff;" vertex="1" parent="-jVfMDI7OYQH_IpvzSHl-68">
          <mxGeometry x="3.4399999999999977" y="21.079999999999927" width="49.87" height="30.09" as="geometry" />
        </mxCell>
        <mxCell id="-jVfMDI7OYQH_IpvzSHl-72" value="" style="rounded=0;whiteSpace=wrap;html=1;fillColor=#1ba1e2;strokeColor=none;shadow=0;textShadow=0;fontSize=15;fontColor=#ffffff;" vertex="1" parent="-jVfMDI7OYQH_IpvzSHl-68">
          <mxGeometry x="3.4424999999999955" y="51.893257652772945" width="49.875" height="7.003275725742679" as="geometry" />
        </mxCell>
        <mxCell id="-jVfMDI7OYQH_IpvzSHl-73" value="" style="group" vertex="1" connectable="0" parent="1">
          <mxGeometry x="630" y="248" width="57" height="62" as="geometry" />
        </mxCell>
        <mxCell id="-jVfMDI7OYQH_IpvzSHl-74" value="&lt;div style=&quot;font-size: 15px;&quot;&gt;&lt;br style=&quot;font-size: 15px;&quot;&gt;&lt;/div&gt;" style="rounded=1;whiteSpace=wrap;html=1;strokeWidth=1;fontSize=15;rotation=90;align=right;verticalAlign=middle;horizontal=0;labelPosition=left;verticalLabelPosition=middle;fillColor=#e1d5e7;strokeColor=#9673a6;perimeterSpacing=0;imageWidth=24;arcSize=6;" vertex="1" parent="-jVfMDI7OYQH_IpvzSHl-73">
          <mxGeometry x="-2.1375" y="3.872811476335762" width="61.275" height="56.02620580594143" as="geometry" />
        </mxCell>
        <mxCell id="-jVfMDI7OYQH_IpvzSHl-75" value="&lt;font style=&quot;font-size: 14px;&quot;&gt;DCD&lt;/font&gt;" style="text;html=1;align=center;verticalAlign=middle;resizable=0;points=[];autosize=1;strokeColor=none;fillColor=none;labelBackgroundColor=none;fontColor=#000000;fontSize=14;" vertex="1" parent="-jVfMDI7OYQH_IpvzSHl-73">
          <mxGeometry x="3.4375" y="-4" width="50" height="30" as="geometry" />
        </mxCell>
        <mxCell id="-jVfMDI7OYQH_IpvzSHl-76" value="" style="rounded=0;whiteSpace=wrap;html=1;fillColor=#fff2cc;strokeColor=none;shadow=0;textShadow=0;fontSize=14;" vertex="1" parent="-jVfMDI7OYQH_IpvzSHl-73">
          <mxGeometry x="3.442500000000109" y="19.978844459505183" width="49.875" height="7.003275725742679" as="geometry" />
        </mxCell>
        <mxCell id="-jVfMDI7OYQH_IpvzSHl-77" value="" style="rounded=0;whiteSpace=wrap;html=1;fillColor=#d80073;strokeColor=none;shadow=0;textShadow=0;fontSize=14;fontColor=#ffffff;" vertex="1" parent="-jVfMDI7OYQH_IpvzSHl-73">
          <mxGeometry x="3.442500000000109" y="27.682447757822217" width="49.875" height="7.003275725742679" as="geometry" />
        </mxCell>
        <mxCell id="-jVfMDI7OYQH_IpvzSHl-78" value="" style="rounded=0;whiteSpace=wrap;html=1;fillColor=#1ba1e2;strokeColor=none;shadow=0;textShadow=0;fontSize=15;fontColor=#ffffff;" vertex="1" parent="-jVfMDI7OYQH_IpvzSHl-73">
          <mxGeometry x="3.442500000000109" y="35.38605105613914" width="49.875" height="7.003275725742679" as="geometry" />
        </mxCell>
        <mxCell id="-jVfMDI7OYQH_IpvzSHl-79" value="" style="rounded=0;whiteSpace=wrap;html=1;fillColor=#9e5bfb;strokeColor=none;shadow=0;textShadow=0;fontSize=15;fontColor=#ffffff;" vertex="1" parent="-jVfMDI7OYQH_IpvzSHl-73">
          <mxGeometry x="3.442500000000109" y="50.79325765277298" width="49.875" height="7.003275725742679" as="geometry" />
        </mxCell>
        <mxCell id="-jVfMDI7OYQH_IpvzSHl-80" value="" style="rounded=0;whiteSpace=wrap;html=1;fillColor=#d80073;strokeColor=none;shadow=0;textShadow=0;fontSize=14;fontColor=#ffffff;" vertex="1" parent="-jVfMDI7OYQH_IpvzSHl-73">
          <mxGeometry x="3.442500000000109" y="43.08965435445606" width="49.875" height="7.003275725742679" as="geometry" />
        </mxCell>
        <mxCell id="-jVfMDI7OYQH_IpvzSHl-81" value="x4" style="text;html=1;align=center;verticalAlign=middle;resizable=0;points=[];autosize=1;strokeColor=none;fillColor=none;fontSize=10;" vertex="1" parent="1">
          <mxGeometry x="185" y="228" width="30" height="30" as="geometry" />
        </mxCell>
        <mxCell id="-jVfMDI7OYQH_IpvzSHl-82" value="x4" style="text;html=1;align=center;verticalAlign=middle;resizable=0;points=[];autosize=1;strokeColor=none;fillColor=none;fontSize=10;" vertex="1" parent="1">
          <mxGeometry x="243" y="228" width="30" height="30" as="geometry" />
        </mxCell>
        <mxCell id="-jVfMDI7OYQH_IpvzSHl-83" value="x4" style="text;html=1;align=center;verticalAlign=middle;resizable=0;points=[];autosize=1;strokeColor=none;fillColor=none;fontSize=10;" vertex="1" parent="1">
          <mxGeometry x="265" y="228" width="30" height="30" as="geometry" />
        </mxCell>
        <mxCell id="-jVfMDI7OYQH_IpvzSHl-84" value="x4" style="text;html=1;align=center;verticalAlign=middle;resizable=0;points=[];autosize=1;strokeColor=none;fillColor=none;fontSize=10;" vertex="1" parent="1">
          <mxGeometry x="323" y="228" width="30" height="30" as="geometry" />
        </mxCell>
        <mxCell id="-jVfMDI7OYQH_IpvzSHl-85" value="x4" style="text;html=1;align=center;verticalAlign=middle;resizable=0;points=[];autosize=1;strokeColor=none;fillColor=none;fontSize=10;" vertex="1" parent="1">
          <mxGeometry x="345" y="228" width="30" height="30" as="geometry" />
        </mxCell>
        <mxCell id="-jVfMDI7OYQH_IpvzSHl-86" value="x4" style="text;html=1;align=center;verticalAlign=middle;resizable=0;points=[];autosize=1;strokeColor=none;fillColor=none;fontSize=10;" vertex="1" parent="1">
          <mxGeometry x="403" y="228" width="30" height="30" as="geometry" />
        </mxCell>
        <mxCell id="-jVfMDI7OYQH_IpvzSHl-87" value="x4" style="text;html=1;align=center;verticalAlign=middle;resizable=0;points=[];autosize=1;strokeColor=none;fillColor=none;fontSize=10;" vertex="1" parent="1">
          <mxGeometry x="425" y="228" width="30" height="30" as="geometry" />
        </mxCell>
        <mxCell id="-jVfMDI7OYQH_IpvzSHl-88" value="x4" style="text;html=1;align=center;verticalAlign=middle;resizable=0;points=[];autosize=1;strokeColor=none;fillColor=none;fontSize=10;" vertex="1" parent="1">
          <mxGeometry x="483" y="228" width="30" height="30" as="geometry" />
        </mxCell>
        <mxCell id="-jVfMDI7OYQH_IpvzSHl-89" value="x4" style="text;html=1;align=center;verticalAlign=middle;resizable=0;points=[];autosize=1;strokeColor=none;fillColor=none;fontSize=10;" vertex="1" parent="1">
          <mxGeometry x="505" y="228" width="30" height="30" as="geometry" />
        </mxCell>
        <mxCell id="-jVfMDI7OYQH_IpvzSHl-90" value="x4" style="text;html=1;align=center;verticalAlign=middle;resizable=0;points=[];autosize=1;strokeColor=none;fillColor=none;fontSize=10;" vertex="1" parent="1">
          <mxGeometry x="643" y="228" width="30" height="30" as="geometry" />
        </mxCell>
        <mxCell id="-jVfMDI7OYQH_IpvzSHl-91" value="x4" style="text;html=1;align=center;verticalAlign=middle;resizable=0;points=[];autosize=1;strokeColor=none;fillColor=none;fontSize=10;" vertex="1" parent="1">
          <mxGeometry x="665" y="228" width="30" height="30" as="geometry" />
        </mxCell>
        <mxCell id="-jVfMDI7OYQH_IpvzSHl-92" value="" style="shape=image;html=1;verticalAlign=top;verticalLabelPosition=bottom;labelBackgroundColor=#ffffff;imageAspect=0;aspect=fixed;image=https://cdn4.iconfinder.com/data/icons/developer-set-3/128/other-128.png" vertex="1" parent="1">
          <mxGeometry x="560" y="248" width="48" height="48" as="geometry" />
        </mxCell>
        <mxCell id="-jVfMDI7OYQH_IpvzSHl-103" value="" style="group;fontSize=11;" vertex="1" connectable="0" parent="1">
          <mxGeometry x="230.00283994650022" y="40" width="81.58716005349977" height="50.00000000000001" as="geometry" />
        </mxCell>
        <mxCell id="-jVfMDI7OYQH_IpvzSHl-104" value="" style="pointerEvents=1;shadow=1;dashed=0;html=1;strokeColor=#d79b00;fillColor=#ffe6cc;labelPosition=center;verticalLabelPosition=bottom;verticalAlign=top;align=center;outlineConnect=0;shape=mxgraph.veeam.ram;direction=south;fontSize=11;" vertex="1" parent="-jVfMDI7OYQH_IpvzSHl-103">
          <mxGeometry x="68.95526824193787" y="8.359326303060002e-15" width="12.631891811561896" height="50" as="geometry" />
        </mxCell>
        <mxCell id="-jVfMDI7OYQH_IpvzSHl-105" value="" style="pointerEvents=1;shadow=1;dashed=0;html=1;strokeColor=#d79b00;fillColor=#ffe6cc;labelPosition=center;verticalLabelPosition=bottom;verticalAlign=top;align=center;outlineConnect=0;shape=mxgraph.veeam.ram;direction=north;fontSize=11;" vertex="1" parent="-jVfMDI7OYQH_IpvzSHl-103">
          <mxGeometry x="1.783325902808738" width="12.631891811561896" height="50" as="geometry" />
        </mxCell>
        <mxCell id="-jVfMDI7OYQH_IpvzSHl-106" value="" style="rounded=1;whiteSpace=wrap;html=1;arcSize=7;fillColor=#1ba1e2;strokeColor=#006EAF;fontColor=#ffffff;fontSize=11;" vertex="1" parent="1">
          <mxGeometry x="246.32684210526315" y="40" width="50.526315789473685" height="50" as="geometry" />
        </mxCell>
        <mxCell id="-jVfMDI7OYQH_IpvzSHl-107" value="CPU" style="rounded=1;whiteSpace=wrap;html=1;fillColor=#dae8fc;strokeColor=#6c8ebf;shadow=1;fontSize=11;" vertex="1" parent="1">
          <mxGeometry x="250.53736842105263" y="44.16666666666666" width="42.10526315789474" height="41.66666666666667" as="geometry" />
        </mxCell>
        <mxCell id="-jVfMDI7OYQH_IpvzSHl-110" value="" style="group;fontSize=11;" vertex="1" connectable="0" parent="1">
          <mxGeometry x="395" y="40" width="80" height="50" as="geometry" />
        </mxCell>
        <mxCell id="-jVfMDI7OYQH_IpvzSHl-111" value="" style="group;fillColor=default;gradientColor=none;strokeColor=none;fontSize=11;" connectable="0" vertex="1" parent="-jVfMDI7OYQH_IpvzSHl-110">
          <mxGeometry x="14.736842105263156" width="50.52631578947368" height="50.00000000000001" as="geometry" />
        </mxCell>
        <mxCell id="-jVfMDI7OYQH_IpvzSHl-112" value="" style="rounded=1;whiteSpace=wrap;html=1;arcSize=7;fillColor=#d80073;strokeColor=#A50040;fontColor=#ffffff;fontSize=11;" vertex="1" parent="-jVfMDI7OYQH_IpvzSHl-111">
          <mxGeometry width="50.52631578947368" height="50.00000000000001" as="geometry" />
        </mxCell>
        <mxCell id="-jVfMDI7OYQH_IpvzSHl-113" value="CPU" style="rounded=1;whiteSpace=wrap;html=1;fillColor=#f8cecc;strokeColor=#b85450;shadow=1;fontSize=11;" vertex="1" parent="-jVfMDI7OYQH_IpvzSHl-111">
          <mxGeometry x="4.2105263157894735" y="4.166666666666668" width="42.10526315789473" height="41.66666666666667" as="geometry" />
        </mxCell>
        <mxCell id="-jVfMDI7OYQH_IpvzSHl-114" value="" style="group;fontSize=11;" vertex="1" connectable="0" parent="-jVfMDI7OYQH_IpvzSHl-110">
          <mxGeometry x="-1.5871600534997523" y="-8.359326303060002e-15" width="81.58716005349976" height="50.000000000000014" as="geometry" />
        </mxCell>
        <mxCell id="-jVfMDI7OYQH_IpvzSHl-115" value="" style="pointerEvents=1;shadow=1;dashed=0;html=1;strokeColor=#d79b00;fillColor=#ffe6cc;labelPosition=center;verticalLabelPosition=bottom;verticalAlign=top;align=center;outlineConnect=0;shape=mxgraph.veeam.ram;direction=south;fontSize=11;" vertex="1" parent="-jVfMDI7OYQH_IpvzSHl-114">
          <mxGeometry x="68.95526824193786" y="8.359326303060002e-15" width="12.631891811561893" height="50.00000000000001" as="geometry" />
        </mxCell>
        <mxCell id="-jVfMDI7OYQH_IpvzSHl-116" value="" style="pointerEvents=1;shadow=1;dashed=0;html=1;strokeColor=#d79b00;fillColor=#ffe6cc;labelPosition=center;verticalLabelPosition=bottom;verticalAlign=top;align=center;outlineConnect=0;shape=mxgraph.veeam.ram;direction=north;fontSize=11;" vertex="1" parent="-jVfMDI7OYQH_IpvzSHl-114">
          <mxGeometry x="1.7833259028087378" width="12.631891811561893" height="50.00000000000001" as="geometry" />
        </mxCell>
        <mxCell id="-jVfMDI7OYQH_IpvzSHl-117" style="edgeStyle=orthogonalEdgeStyle;rounded=0;orthogonalLoop=1;jettySize=auto;html=1;entryX=0.071;entryY=-0.005;entryDx=0;entryDy=0;entryPerimeter=0;" edge="1" parent="1">
          <mxGeometry relative="1" as="geometry">
            <mxPoint x="438" y="90" as="sourcePoint" />
            <mxPoint x="438" y="150" as="targetPoint" />
          </mxGeometry>
        </mxCell>
        <mxCell id="-jVfMDI7OYQH_IpvzSHl-118" value="x16" style="text;html=1;align=center;verticalAlign=middle;resizable=0;points=[];autosize=1;strokeColor=none;fillColor=none;fontSize=11;" vertex="1" parent="1">
          <mxGeometry x="395" y="128" width="40" height="30" as="geometry" />
        </mxCell>
        <mxCell id="-jVfMDI7OYQH_IpvzSHl-124" style="edgeStyle=orthogonalEdgeStyle;rounded=0;orthogonalLoop=1;jettySize=auto;html=1;entryX=0.071;entryY=-0.005;entryDx=0;entryDy=0;entryPerimeter=0;" edge="1" parent="1">
          <mxGeometry relative="1" as="geometry">
            <mxPoint x="602.59" y="90" as="sourcePoint" />
            <mxPoint x="602.59" y="150" as="targetPoint" />
          </mxGeometry>
        </mxCell>
        <mxCell id="-jVfMDI7OYQH_IpvzSHl-125" value="" style="group;fontSize=11;" vertex="1" connectable="0" parent="1">
          <mxGeometry x="560.0028399465002" y="40" width="81.58716005349977" height="50.00000000000001" as="geometry" />
        </mxCell>
        <mxCell id="-jVfMDI7OYQH_IpvzSHl-126" value="" style="pointerEvents=1;shadow=1;dashed=0;html=1;strokeColor=#d79b00;fillColor=#ffe6cc;labelPosition=center;verticalLabelPosition=bottom;verticalAlign=top;align=center;outlineConnect=0;shape=mxgraph.veeam.ram;direction=south;fontSize=11;" vertex="1" parent="-jVfMDI7OYQH_IpvzSHl-125">
          <mxGeometry x="68.95526824193787" y="8.359326303060002e-15" width="12.631891811561896" height="50" as="geometry" />
        </mxCell>
        <mxCell id="-jVfMDI7OYQH_IpvzSHl-127" value="" style="pointerEvents=1;shadow=1;dashed=0;html=1;strokeColor=#d79b00;fillColor=#ffe6cc;labelPosition=center;verticalLabelPosition=bottom;verticalAlign=top;align=center;outlineConnect=0;shape=mxgraph.veeam.ram;direction=north;fontSize=11;" vertex="1" parent="-jVfMDI7OYQH_IpvzSHl-125">
          <mxGeometry x="1.783325902808738" width="12.631891811561896" height="50" as="geometry" />
        </mxCell>
        <mxCell id="-jVfMDI7OYQH_IpvzSHl-128" value="" style="rounded=1;whiteSpace=wrap;html=1;arcSize=7;fillColor=#9750fb;strokeColor=#3700CC;fontColor=#ffffff;fontSize=11;" vertex="1" parent="1">
          <mxGeometry x="576.3268421052632" y="40" width="50.526315789473685" height="50" as="geometry" />
        </mxCell>
        <mxCell id="-jVfMDI7OYQH_IpvzSHl-129" value="CPU" style="rounded=1;whiteSpace=wrap;html=1;fillColor=#e1d5e7;strokeColor=#9673a6;shadow=1;fontSize=11;" vertex="1" parent="1">
          <mxGeometry x="580.5373684210526" y="44.16666666666666" width="42.10526315789474" height="41.66666666666667" as="geometry" />
        </mxCell>
        <mxCell id="-jVfMDI7OYQH_IpvzSHl-130" value="x16" style="text;html=1;align=center;verticalAlign=middle;resizable=0;points=[];autosize=1;strokeColor=none;fillColor=none;fontSize=11;" vertex="1" parent="1">
          <mxGeometry x="598" y="128" width="40" height="30" as="geometry" />
        </mxCell>
      </root>
    </mxGraphModel>
  </diagram>
  <diagram id="WucbkD1C6NQogiTqIdkg" name="Page-2">
    <mxGraphModel dx="657" dy="419" grid="1" gridSize="10" guides="1" tooltips="1" connect="1" arrows="1" fold="1" page="1" pageScale="1" pageWidth="1100" pageHeight="850" math="0" shadow="0">
      <root>
        <mxCell id="0" />
        <mxCell id="1" parent="0" />
        <mxCell id="YwbpcFdrM__ADcjujM-U-1" value="" style="rounded=0;whiteSpace=wrap;html=1;fillColor=#e9e4ec;strokeColor=#9673a6;fontSize=11;" vertex="1" parent="1">
          <mxGeometry x="727.9968421052631" y="110" width="209.74" height="90" as="geometry" />
        </mxCell>
        <mxCell id="YwbpcFdrM__ADcjujM-U-2" value="" style="rounded=0;whiteSpace=wrap;html=1;fillColor=#fbebea;strokeColor=#b85450;fontSize=11;" vertex="1" parent="1">
          <mxGeometry x="443.99684210526317" y="110" width="209.74" height="90" as="geometry" />
        </mxCell>
        <mxCell id="YwbpcFdrM__ADcjujM-U-3" value="" style="rounded=0;whiteSpace=wrap;html=1;fillColor=#eaf1fb;strokeColor=#6c8ebf;fontSize=11;" vertex="1" parent="1">
          <mxGeometry x="160.99684210526314" y="110" width="209.74" height="90" as="geometry" />
        </mxCell>
        <mxCell id="YwbpcFdrM__ADcjujM-U-4" value="" style="group;fontSize=11;" vertex="1" connectable="0" parent="1">
          <mxGeometry x="559" y="130" width="80" height="50" as="geometry" />
        </mxCell>
        <mxCell id="YwbpcFdrM__ADcjujM-U-5" value="" style="group;fillColor=default;gradientColor=none;strokeColor=none;fontSize=11;" connectable="0" vertex="1" parent="YwbpcFdrM__ADcjujM-U-4">
          <mxGeometry x="14.736842105263156" width="50.52631578947368" height="50.00000000000001" as="geometry" />
        </mxCell>
        <mxCell id="YwbpcFdrM__ADcjujM-U-6" value="" style="rounded=1;whiteSpace=wrap;html=1;arcSize=7;fillColor=#d80073;strokeColor=#A50040;fontColor=#ffffff;fontSize=11;" vertex="1" parent="YwbpcFdrM__ADcjujM-U-5">
          <mxGeometry width="50.52631578947368" height="50.00000000000001" as="geometry" />
        </mxCell>
        <mxCell id="YwbpcFdrM__ADcjujM-U-7" value="CPU" style="rounded=1;whiteSpace=wrap;html=1;fillColor=#f8cecc;strokeColor=#b85450;shadow=1;fontSize=11;" vertex="1" parent="YwbpcFdrM__ADcjujM-U-5">
          <mxGeometry x="4.2105263157894735" y="4.166666666666668" width="42.10526315789473" height="41.66666666666667" as="geometry" />
        </mxCell>
        <mxCell id="YwbpcFdrM__ADcjujM-U-8" value="" style="group;fontSize=11;" vertex="1" connectable="0" parent="YwbpcFdrM__ADcjujM-U-4">
          <mxGeometry x="-1.5871600534997523" y="-8.359326303060002e-15" width="81.58716005349976" height="50.000000000000014" as="geometry" />
        </mxCell>
        <mxCell id="YwbpcFdrM__ADcjujM-U-9" value="" style="pointerEvents=1;shadow=1;dashed=0;html=1;strokeColor=#d79b00;fillColor=#ffe6cc;labelPosition=center;verticalLabelPosition=bottom;verticalAlign=top;align=center;outlineConnect=0;shape=mxgraph.veeam.ram;direction=south;fontSize=11;" vertex="1" parent="YwbpcFdrM__ADcjujM-U-8">
          <mxGeometry x="68.95526824193786" y="8.359326303060002e-15" width="12.631891811561893" height="50.00000000000001" as="geometry" />
        </mxCell>
        <mxCell id="YwbpcFdrM__ADcjujM-U-10" value="" style="pointerEvents=1;shadow=1;dashed=0;html=1;strokeColor=#d79b00;fillColor=#ffe6cc;labelPosition=center;verticalLabelPosition=bottom;verticalAlign=top;align=center;outlineConnect=0;shape=mxgraph.veeam.ram;direction=north;fontSize=11;" vertex="1" parent="YwbpcFdrM__ADcjujM-U-8">
          <mxGeometry x="1.7833259028087378" width="12.631891811561893" height="50.00000000000001" as="geometry" />
        </mxCell>
        <mxCell id="YwbpcFdrM__ADcjujM-U-11" style="edgeStyle=orthogonalEdgeStyle;rounded=0;orthogonalLoop=1;jettySize=auto;html=1;entryX=0.071;entryY=-0.005;entryDx=0;entryDy=0;entryPerimeter=0;" edge="1" parent="1">
          <mxGeometry relative="1" as="geometry">
            <mxPoint x="215" y="180" as="sourcePoint" />
            <mxPoint x="215" y="240" as="targetPoint" />
          </mxGeometry>
        </mxCell>
        <mxCell id="YwbpcFdrM__ADcjujM-U-12" style="edgeStyle=orthogonalEdgeStyle;rounded=0;orthogonalLoop=1;jettySize=auto;html=1;entryX=0.071;entryY=-0.005;entryDx=0;entryDy=0;entryPerimeter=0;" edge="1" parent="1">
          <mxGeometry relative="1" as="geometry">
            <mxPoint x="317" y="180" as="sourcePoint" />
            <mxPoint x="317" y="240" as="targetPoint" />
          </mxGeometry>
        </mxCell>
        <mxCell id="YwbpcFdrM__ADcjujM-U-13" style="edgeStyle=orthogonalEdgeStyle;rounded=0;orthogonalLoop=1;jettySize=auto;html=1;entryX=0.071;entryY=-0.005;entryDx=0;entryDy=0;entryPerimeter=0;" edge="1" parent="1">
          <mxGeometry relative="1" as="geometry">
            <mxPoint x="602" y="180" as="sourcePoint" />
            <mxPoint x="602" y="240" as="targetPoint" />
          </mxGeometry>
        </mxCell>
        <mxCell id="YwbpcFdrM__ADcjujM-U-14" style="edgeStyle=orthogonalEdgeStyle;rounded=0;orthogonalLoop=1;jettySize=auto;html=1;entryX=0.071;entryY=-0.005;entryDx=0;entryDy=0;entryPerimeter=0;" edge="1" parent="1">
          <mxGeometry relative="1" as="geometry">
            <mxPoint x="784" y="180" as="sourcePoint" />
            <mxPoint x="784" y="240" as="targetPoint" />
          </mxGeometry>
        </mxCell>
        <mxCell id="YwbpcFdrM__ADcjujM-U-15" value="" style="group;fillColor=default;gradientColor=none;strokeColor=none;fontSize=11;container=0;" connectable="0" vertex="1" parent="1">
          <mxGeometry x="290.7368421052632" y="130" width="50.52631578947368" height="50.00000000000001" as="geometry" />
        </mxCell>
        <mxCell id="YwbpcFdrM__ADcjujM-U-16" value="" style="pointerEvents=1;shadow=1;dashed=0;html=1;strokeColor=#d79b00;fillColor=#ffe6cc;labelPosition=center;verticalLabelPosition=bottom;verticalAlign=top;align=center;outlineConnect=0;shape=mxgraph.veeam.ram;direction=south;fontSize=11;" vertex="1" parent="1">
          <mxGeometry x="343.3681081884381" y="130" width="12.631891811561893" height="50.00000000000001" as="geometry" />
        </mxCell>
        <mxCell id="YwbpcFdrM__ADcjujM-U-17" value="" style="pointerEvents=1;shadow=1;dashed=0;html=1;strokeColor=#d79b00;fillColor=#ffe6cc;labelPosition=center;verticalLabelPosition=bottom;verticalAlign=top;align=center;outlineConnect=0;shape=mxgraph.veeam.ram;direction=north;fontSize=11;" vertex="1" parent="1">
          <mxGeometry x="276.19616584930895" y="130" width="12.631891811561893" height="50.00000000000001" as="geometry" />
        </mxCell>
        <mxCell id="YwbpcFdrM__ADcjujM-U-18" value="" style="group;fontSize=11;" vertex="1" connectable="0" parent="1">
          <mxGeometry x="174.4128399465002" y="130" width="81.58716005349977" height="50.00000000000001" as="geometry" />
        </mxCell>
        <mxCell id="YwbpcFdrM__ADcjujM-U-19" value="" style="pointerEvents=1;shadow=1;dashed=0;html=1;strokeColor=#d79b00;fillColor=#ffe6cc;labelPosition=center;verticalLabelPosition=bottom;verticalAlign=top;align=center;outlineConnect=0;shape=mxgraph.veeam.ram;direction=south;fontSize=11;" vertex="1" parent="YwbpcFdrM__ADcjujM-U-18">
          <mxGeometry x="68.95526824193787" y="8.359326303060002e-15" width="12.631891811561896" height="50" as="geometry" />
        </mxCell>
        <mxCell id="YwbpcFdrM__ADcjujM-U-20" value="" style="pointerEvents=1;shadow=1;dashed=0;html=1;strokeColor=#d79b00;fillColor=#ffe6cc;labelPosition=center;verticalLabelPosition=bottom;verticalAlign=top;align=center;outlineConnect=0;shape=mxgraph.veeam.ram;direction=north;fontSize=11;" vertex="1" parent="YwbpcFdrM__ADcjujM-U-18">
          <mxGeometry x="1.783325902808738" width="12.631891811561896" height="50" as="geometry" />
        </mxCell>
        <mxCell id="YwbpcFdrM__ADcjujM-U-21" value="" style="rounded=1;whiteSpace=wrap;html=1;arcSize=7;fillColor=#1ba1e2;strokeColor=#006EAF;fontColor=#ffffff;fontSize=11;" vertex="1" parent="1">
          <mxGeometry x="190.73684210526315" y="130" width="50.526315789473685" height="50" as="geometry" />
        </mxCell>
        <mxCell id="YwbpcFdrM__ADcjujM-U-22" value="CPU" style="rounded=1;whiteSpace=wrap;html=1;fillColor=#dae8fc;strokeColor=#6c8ebf;shadow=1;fontSize=11;" vertex="1" parent="1">
          <mxGeometry x="194.94736842105263" y="134.16666666666666" width="42.10526315789474" height="41.66666666666667" as="geometry" />
        </mxCell>
        <mxCell id="YwbpcFdrM__ADcjujM-U-23" value="" style="rounded=1;whiteSpace=wrap;html=1;arcSize=7;fillColor=#1ba1e2;strokeColor=#006EAF;fontColor=#ffffff;fontSize=11;" vertex="1" parent="1">
          <mxGeometry x="290.7368421052632" y="130" width="50.52631578947368" height="50.00000000000001" as="geometry" />
        </mxCell>
        <mxCell id="YwbpcFdrM__ADcjujM-U-24" value="CPU" style="rounded=1;whiteSpace=wrap;html=1;fillColor=#dae8fc;strokeColor=#6c8ebf;shadow=1;fontSize=11;" vertex="1" parent="1">
          <mxGeometry x="294.94736842105266" y="134.16666666666666" width="42.10526315789473" height="41.66666666666667" as="geometry" />
        </mxCell>
        <mxCell id="YwbpcFdrM__ADcjujM-U-25" value="" style="group;fontSize=11;" vertex="1" connectable="0" parent="1">
          <mxGeometry x="460" y="130" width="80" height="50" as="geometry" />
        </mxCell>
        <mxCell id="YwbpcFdrM__ADcjujM-U-26" value="" style="group;fillColor=default;gradientColor=none;strokeColor=none;fontSize=11;" connectable="0" vertex="1" parent="YwbpcFdrM__ADcjujM-U-25">
          <mxGeometry x="14.736842105263156" width="50.52631578947368" height="50.00000000000001" as="geometry" />
        </mxCell>
        <mxCell id="YwbpcFdrM__ADcjujM-U-27" value="" style="rounded=1;whiteSpace=wrap;html=1;arcSize=7;fillColor=#d80073;strokeColor=#A50040;fontColor=#ffffff;fontSize=11;" vertex="1" parent="YwbpcFdrM__ADcjujM-U-26">
          <mxGeometry width="50.52631578947368" height="50.00000000000001" as="geometry" />
        </mxCell>
        <mxCell id="YwbpcFdrM__ADcjujM-U-28" value="CPU" style="rounded=1;whiteSpace=wrap;html=1;fillColor=#f8cecc;strokeColor=#b85450;shadow=1;fontSize=11;" vertex="1" parent="YwbpcFdrM__ADcjujM-U-26">
          <mxGeometry x="4.2105263157894735" y="4.166666666666668" width="42.10526315789473" height="41.66666666666667" as="geometry" />
        </mxCell>
        <mxCell id="YwbpcFdrM__ADcjujM-U-29" value="" style="group;fontSize=11;" vertex="1" connectable="0" parent="YwbpcFdrM__ADcjujM-U-25">
          <mxGeometry x="-1.5871600534997523" y="-8.359326303060002e-15" width="81.58716005349976" height="50.000000000000014" as="geometry" />
        </mxCell>
        <mxCell id="YwbpcFdrM__ADcjujM-U-30" value="" style="pointerEvents=1;shadow=1;dashed=0;html=1;strokeColor=#d79b00;fillColor=#ffe6cc;labelPosition=center;verticalLabelPosition=bottom;verticalAlign=top;align=center;outlineConnect=0;shape=mxgraph.veeam.ram;direction=south;fontSize=11;" vertex="1" parent="YwbpcFdrM__ADcjujM-U-29">
          <mxGeometry x="68.95526824193786" y="8.359326303060002e-15" width="12.631891811561893" height="50.00000000000001" as="geometry" />
        </mxCell>
        <mxCell id="YwbpcFdrM__ADcjujM-U-31" value="" style="pointerEvents=1;shadow=1;dashed=0;html=1;strokeColor=#d79b00;fillColor=#ffe6cc;labelPosition=center;verticalLabelPosition=bottom;verticalAlign=top;align=center;outlineConnect=0;shape=mxgraph.veeam.ram;direction=north;fontSize=11;" vertex="1" parent="YwbpcFdrM__ADcjujM-U-29">
          <mxGeometry x="1.7833259028087378" width="12.631891811561893" height="50.00000000000001" as="geometry" />
        </mxCell>
        <mxCell id="YwbpcFdrM__ADcjujM-U-32" style="edgeStyle=orthogonalEdgeStyle;rounded=0;orthogonalLoop=1;jettySize=auto;html=1;entryX=0.071;entryY=-0.005;entryDx=0;entryDy=0;entryPerimeter=0;" edge="1" parent="1">
          <mxGeometry relative="1" as="geometry">
            <mxPoint x="503" y="180" as="sourcePoint" />
            <mxPoint x="503" y="240" as="targetPoint" />
          </mxGeometry>
        </mxCell>
        <mxCell id="YwbpcFdrM__ADcjujM-U-33" value="" style="group;fontSize=11;" vertex="1" connectable="0" parent="1">
          <mxGeometry x="741.4128399465002" y="130" width="81.58716005349977" height="50.00000000000001" as="geometry" />
        </mxCell>
        <mxCell id="YwbpcFdrM__ADcjujM-U-34" value="" style="pointerEvents=1;shadow=1;dashed=0;html=1;strokeColor=#d79b00;fillColor=#ffe6cc;labelPosition=center;verticalLabelPosition=bottom;verticalAlign=top;align=center;outlineConnect=0;shape=mxgraph.veeam.ram;direction=south;fontSize=11;" vertex="1" parent="YwbpcFdrM__ADcjujM-U-33">
          <mxGeometry x="68.95526824193787" y="8.359326303060002e-15" width="12.631891811561896" height="50" as="geometry" />
        </mxCell>
        <mxCell id="YwbpcFdrM__ADcjujM-U-35" value="" style="pointerEvents=1;shadow=1;dashed=0;html=1;strokeColor=#d79b00;fillColor=#ffe6cc;labelPosition=center;verticalLabelPosition=bottom;verticalAlign=top;align=center;outlineConnect=0;shape=mxgraph.veeam.ram;direction=north;fontSize=11;" vertex="1" parent="YwbpcFdrM__ADcjujM-U-33">
          <mxGeometry x="1.783325902808738" width="12.631891811561896" height="50" as="geometry" />
        </mxCell>
        <mxCell id="YwbpcFdrM__ADcjujM-U-36" value="" style="rounded=1;whiteSpace=wrap;html=1;arcSize=7;fillColor=#9750fb;strokeColor=#3700CC;fontColor=#ffffff;fontSize=11;" vertex="1" parent="1">
          <mxGeometry x="757.7368421052631" y="130" width="50.526315789473685" height="50" as="geometry" />
        </mxCell>
        <mxCell id="YwbpcFdrM__ADcjujM-U-37" value="CPU" style="rounded=1;whiteSpace=wrap;html=1;fillColor=#e1d5e7;strokeColor=#9673a6;shadow=1;fontSize=11;" vertex="1" parent="1">
          <mxGeometry x="761.9473684210526" y="134.16666666666666" width="42.10526315789474" height="41.66666666666667" as="geometry" />
        </mxCell>
        <mxCell id="YwbpcFdrM__ADcjujM-U-38" style="edgeStyle=orthogonalEdgeStyle;rounded=0;orthogonalLoop=1;jettySize=auto;html=1;entryX=0.071;entryY=-0.005;entryDx=0;entryDy=0;entryPerimeter=0;" edge="1" parent="1">
          <mxGeometry relative="1" as="geometry">
            <mxPoint x="882.59" y="180" as="sourcePoint" />
            <mxPoint x="882.59" y="240" as="targetPoint" />
          </mxGeometry>
        </mxCell>
        <mxCell id="YwbpcFdrM__ADcjujM-U-39" value="" style="group;fontSize=11;" vertex="1" connectable="0" parent="1">
          <mxGeometry x="840.0028399465002" y="130" width="81.58716005349977" height="50.00000000000001" as="geometry" />
        </mxCell>
        <mxCell id="YwbpcFdrM__ADcjujM-U-40" value="" style="pointerEvents=1;shadow=1;dashed=0;html=1;strokeColor=#d79b00;fillColor=#ffe6cc;labelPosition=center;verticalLabelPosition=bottom;verticalAlign=top;align=center;outlineConnect=0;shape=mxgraph.veeam.ram;direction=south;fontSize=11;" vertex="1" parent="YwbpcFdrM__ADcjujM-U-39">
          <mxGeometry x="68.95526824193787" y="8.359326303060002e-15" width="12.631891811561896" height="50" as="geometry" />
        </mxCell>
        <mxCell id="YwbpcFdrM__ADcjujM-U-41" value="" style="pointerEvents=1;shadow=1;dashed=0;html=1;strokeColor=#d79b00;fillColor=#ffe6cc;labelPosition=center;verticalLabelPosition=bottom;verticalAlign=top;align=center;outlineConnect=0;shape=mxgraph.veeam.ram;direction=north;fontSize=11;" vertex="1" parent="YwbpcFdrM__ADcjujM-U-39">
          <mxGeometry x="1.783325902808738" width="12.631891811561896" height="50" as="geometry" />
        </mxCell>
        <mxCell id="YwbpcFdrM__ADcjujM-U-42" value="" style="rounded=1;whiteSpace=wrap;html=1;arcSize=7;fillColor=#9750fb;strokeColor=#3700CC;fontColor=#ffffff;fontSize=11;" vertex="1" parent="1">
          <mxGeometry x="856.3268421052632" y="130" width="50.526315789473685" height="50" as="geometry" />
        </mxCell>
        <mxCell id="YwbpcFdrM__ADcjujM-U-43" value="CPU" style="rounded=1;whiteSpace=wrap;html=1;fillColor=#e1d5e7;strokeColor=#9673a6;shadow=1;fontSize=11;" vertex="1" parent="1">
          <mxGeometry x="860.5373684210526" y="134.16666666666666" width="42.10526315789474" height="41.66666666666667" as="geometry" />
        </mxCell>
      </root>
    </mxGraphModel>
  </diagram>
  <diagram id="ZVGTCDFXaWymRvYFe7tx" name="Page-3">
    <mxGraphModel dx="788" dy="502" grid="1" gridSize="10" guides="1" tooltips="1" connect="1" arrows="1" fold="1" page="1" pageScale="1" pageWidth="1100" pageHeight="850" math="0" shadow="0">
      <root>
        <mxCell id="0" />
        <mxCell id="1" parent="0" />
        <mxCell id="KSTZ6rtID0syNcskUcmo-1" style="edgeStyle=orthogonalEdgeStyle;rounded=0;orthogonalLoop=1;jettySize=auto;html=1;exitX=0.5;exitY=1;exitDx=0;exitDy=0;" edge="1" parent="1">
          <mxGeometry relative="1" as="geometry">
            <mxPoint x="411.5899999999999" y="140" as="sourcePoint" />
            <mxPoint x="412" y="210" as="targetPoint" />
          </mxGeometry>
        </mxCell>
        <mxCell id="KSTZ6rtID0syNcskUcmo-2" style="edgeStyle=orthogonalEdgeStyle;rounded=0;orthogonalLoop=1;jettySize=auto;html=1;entryX=0.071;entryY=-0.005;entryDx=0;entryDy=0;entryPerimeter=0;" edge="1" parent="1">
          <mxGeometry relative="1" as="geometry">
            <mxPoint x="578" y="150" as="sourcePoint" />
            <mxPoint x="578" y="210" as="targetPoint" />
          </mxGeometry>
        </mxCell>
        <mxCell id="KSTZ6rtID0syNcskUcmo-3" style="edgeStyle=orthogonalEdgeStyle;rounded=0;orthogonalLoop=1;jettySize=auto;html=1;entryX=0.071;entryY=-0.005;entryDx=0;entryDy=0;entryPerimeter=0;" edge="1" parent="1">
          <mxGeometry relative="1" as="geometry">
            <mxPoint x="742.59" y="150" as="sourcePoint" />
            <mxPoint x="742.59" y="210" as="targetPoint" />
          </mxGeometry>
        </mxCell>
        <mxCell id="KSTZ6rtID0syNcskUcmo-4" value="CXL/DDR" style="text;html=1;align=center;verticalAlign=middle;resizable=0;points=[];autosize=1;strokeColor=none;fillColor=none;fontSize=11;" vertex="1" parent="1">
          <mxGeometry x="343" y="158" width="70" height="30" as="geometry" />
        </mxCell>
        <mxCell id="KSTZ6rtID0syNcskUcmo-5" value="" style="group;fontSize=11;" vertex="1" connectable="0" parent="1">
          <mxGeometry x="370.0028399465002" y="100" width="81.58716005349977" height="50.00000000000001" as="geometry" />
        </mxCell>
        <mxCell id="KSTZ6rtID0syNcskUcmo-6" value="" style="pointerEvents=1;shadow=1;dashed=0;html=1;strokeColor=#d79b00;fillColor=#ffe6cc;labelPosition=center;verticalLabelPosition=bottom;verticalAlign=top;align=center;outlineConnect=0;shape=mxgraph.veeam.ram;direction=south;fontSize=11;" vertex="1" parent="KSTZ6rtID0syNcskUcmo-5">
          <mxGeometry x="68.95526824193787" y="8.359326303060002e-15" width="12.631891811561896" height="50" as="geometry" />
        </mxCell>
        <mxCell id="KSTZ6rtID0syNcskUcmo-7" value="" style="pointerEvents=1;shadow=1;dashed=0;html=1;strokeColor=#d79b00;fillColor=#ffe6cc;labelPosition=center;verticalLabelPosition=bottom;verticalAlign=top;align=center;outlineConnect=0;shape=mxgraph.veeam.ram;direction=north;fontSize=11;" vertex="1" parent="KSTZ6rtID0syNcskUcmo-5">
          <mxGeometry x="1.783325902808738" width="12.631891811561896" height="50" as="geometry" />
        </mxCell>
        <mxCell id="KSTZ6rtID0syNcskUcmo-8" value="" style="rounded=1;whiteSpace=wrap;html=1;arcSize=7;fillColor=#1ba1e2;strokeColor=#006EAF;fontColor=#ffffff;fontSize=11;" vertex="1" parent="1">
          <mxGeometry x="386.32684210526315" y="100" width="50.526315789473685" height="50" as="geometry" />
        </mxCell>
        <mxCell id="KSTZ6rtID0syNcskUcmo-9" value="CPU" style="rounded=1;whiteSpace=wrap;html=1;fillColor=#dae8fc;strokeColor=#6c8ebf;shadow=1;fontSize=11;" vertex="1" parent="1">
          <mxGeometry x="390.53736842105263" y="104.16666666666663" width="42.10526315789474" height="41.66666666666667" as="geometry" />
        </mxCell>
        <mxCell id="KSTZ6rtID0syNcskUcmo-10" value="" style="group;fontSize=11;" vertex="1" connectable="0" parent="1">
          <mxGeometry x="535" y="100" width="80" height="50" as="geometry" />
        </mxCell>
        <mxCell id="KSTZ6rtID0syNcskUcmo-11" value="" style="group;fillColor=default;gradientColor=none;strokeColor=none;fontSize=11;" connectable="0" vertex="1" parent="KSTZ6rtID0syNcskUcmo-10">
          <mxGeometry x="14.736842105263156" width="50.52631578947368" height="50.00000000000001" as="geometry" />
        </mxCell>
        <mxCell id="KSTZ6rtID0syNcskUcmo-12" value="" style="rounded=1;whiteSpace=wrap;html=1;arcSize=7;fillColor=#d80073;strokeColor=#A50040;fontColor=#ffffff;fontSize=11;" vertex="1" parent="KSTZ6rtID0syNcskUcmo-11">
          <mxGeometry width="50.52631578947368" height="50.00000000000001" as="geometry" />
        </mxCell>
        <mxCell id="KSTZ6rtID0syNcskUcmo-13" value="CPU" style="rounded=1;whiteSpace=wrap;html=1;fillColor=#f8cecc;strokeColor=#b85450;shadow=1;fontSize=11;" vertex="1" parent="KSTZ6rtID0syNcskUcmo-11">
          <mxGeometry x="4.2105263157894735" y="4.166666666666668" width="42.10526315789473" height="41.66666666666667" as="geometry" />
        </mxCell>
        <mxCell id="KSTZ6rtID0syNcskUcmo-14" value="" style="group;fontSize=11;" vertex="1" connectable="0" parent="KSTZ6rtID0syNcskUcmo-10">
          <mxGeometry x="-1.5871600534997523" y="-8.359326303060002e-15" width="81.58716005349976" height="50.000000000000014" as="geometry" />
        </mxCell>
        <mxCell id="KSTZ6rtID0syNcskUcmo-15" value="" style="pointerEvents=1;shadow=1;dashed=0;html=1;strokeColor=#d79b00;fillColor=#ffe6cc;labelPosition=center;verticalLabelPosition=bottom;verticalAlign=top;align=center;outlineConnect=0;shape=mxgraph.veeam.ram;direction=south;fontSize=11;" vertex="1" parent="KSTZ6rtID0syNcskUcmo-14">
          <mxGeometry x="68.95526824193786" y="8.359326303060002e-15" width="12.631891811561893" height="50.00000000000001" as="geometry" />
        </mxCell>
        <mxCell id="KSTZ6rtID0syNcskUcmo-16" value="" style="pointerEvents=1;shadow=1;dashed=0;html=1;strokeColor=#d79b00;fillColor=#ffe6cc;labelPosition=center;verticalLabelPosition=bottom;verticalAlign=top;align=center;outlineConnect=0;shape=mxgraph.veeam.ram;direction=north;fontSize=11;" vertex="1" parent="KSTZ6rtID0syNcskUcmo-14">
          <mxGeometry x="1.7833259028087378" width="12.631891811561893" height="50.00000000000001" as="geometry" />
        </mxCell>
        <mxCell id="KSTZ6rtID0syNcskUcmo-17" value="" style="group;fontSize=11;" vertex="1" connectable="0" parent="1">
          <mxGeometry x="700.0028399465002" y="100" width="81.58716005349977" height="50.00000000000001" as="geometry" />
        </mxCell>
        <mxCell id="KSTZ6rtID0syNcskUcmo-18" value="" style="pointerEvents=1;shadow=1;dashed=0;html=1;strokeColor=#d79b00;fillColor=#ffe6cc;labelPosition=center;verticalLabelPosition=bottom;verticalAlign=top;align=center;outlineConnect=0;shape=mxgraph.veeam.ram;direction=south;fontSize=11;" vertex="1" parent="KSTZ6rtID0syNcskUcmo-17">
          <mxGeometry x="68.95526824193787" y="8.359326303060002e-15" width="12.631891811561896" height="50" as="geometry" />
        </mxCell>
        <mxCell id="KSTZ6rtID0syNcskUcmo-19" value="" style="pointerEvents=1;shadow=1;dashed=0;html=1;strokeColor=#d79b00;fillColor=#ffe6cc;labelPosition=center;verticalLabelPosition=bottom;verticalAlign=top;align=center;outlineConnect=0;shape=mxgraph.veeam.ram;direction=north;fontSize=11;" vertex="1" parent="KSTZ6rtID0syNcskUcmo-17">
          <mxGeometry x="1.783325902808738" width="12.631891811561896" height="50" as="geometry" />
        </mxCell>
        <mxCell id="KSTZ6rtID0syNcskUcmo-20" value="" style="rounded=1;whiteSpace=wrap;html=1;arcSize=7;fillColor=#9750fb;strokeColor=#3700CC;fontColor=#ffffff;fontSize=11;" vertex="1" parent="1">
          <mxGeometry x="716.3268421052632" y="100" width="50.526315789473685" height="50" as="geometry" />
        </mxCell>
        <mxCell id="KSTZ6rtID0syNcskUcmo-21" value="CPU" style="rounded=1;whiteSpace=wrap;html=1;fillColor=#e1d5e7;strokeColor=#9673a6;shadow=1;fontSize=11;" vertex="1" parent="1">
          <mxGeometry x="720.5373684210526" y="104.16666666666663" width="42.10526315789474" height="41.66666666666667" as="geometry" />
        </mxCell>
        <mxCell id="KSTZ6rtID0syNcskUcmo-22" value="CXL/DDR" style="text;html=1;align=center;verticalAlign=middle;resizable=0;points=[];autosize=1;strokeColor=none;fillColor=none;fontSize=11;" vertex="1" parent="1">
          <mxGeometry x="510" y="158" width="70" height="30" as="geometry" />
        </mxCell>
        <mxCell id="KSTZ6rtID0syNcskUcmo-23" value="CXL/DDR" style="text;html=1;align=center;verticalAlign=middle;resizable=0;points=[];autosize=1;strokeColor=none;fillColor=none;fontSize=11;" vertex="1" parent="1">
          <mxGeometry x="673" y="158" width="70" height="30" as="geometry" />
        </mxCell>
        <mxCell id="KSTZ6rtID0syNcskUcmo-24" value="Fixed Capacity Memory" style="rounded=0;whiteSpace=wrap;html=1;fillColor=#fff2cc;strokeColor=#d6b656;shadow=0;textShadow=0;fontSize=11;" vertex="1" parent="1">
          <mxGeometry x="370" y="210" width="80" height="60" as="geometry" />
        </mxCell>
        <mxCell id="KSTZ6rtID0syNcskUcmo-25" value="Fixed Capacity Memory" style="rounded=0;whiteSpace=wrap;html=1;fillColor=#fff2cc;strokeColor=#d6b656;shadow=0;textShadow=0;fontSize=11;" vertex="1" parent="1">
          <mxGeometry x="540" y="210" width="80" height="60" as="geometry" />
        </mxCell>
        <mxCell id="KSTZ6rtID0syNcskUcmo-26" value="Fixed Capacity Memory" style="rounded=0;whiteSpace=wrap;html=1;fillColor=#fff2cc;strokeColor=#d6b656;shadow=0;textShadow=0;fontSize=11;" vertex="1" parent="1">
          <mxGeometry x="703" y="210" width="80" height="60" as="geometry" />
        </mxCell>
        <mxCell id="KSTZ6rtID0syNcskUcmo-27" value="&lt;span style=&quot;font-size: 16px;&quot;&gt;Fixed Capacity Secondary Tier&amp;nbsp;&lt;/span&gt;&lt;br&gt;&lt;div&gt;&lt;span style=&quot;font-size: 16px;&quot;&gt;Capacity configured using hardware, cannot be changed dynamically&lt;/span&gt;&lt;/div&gt;" style="rounded=0;whiteSpace=wrap;html=1;fillColor=none;strokeColor=#82b366;dashed=1;verticalAlign=bottom;strokeWidth=2;" vertex="1" parent="1">
          <mxGeometry x="280" y="190" width="600" height="137" as="geometry" />
        </mxCell>
      </root>
    </mxGraphModel>
  </diagram>
</mxfile>
